<svg width="303" height="154" viewBox="0 0 303 154" fill="none" xmlns="http://www.w3.org/2000/svg">
<path d="M48.483 62V15.4545H79.3011V23.5682H58.3239V34.6591H77.2557V42.7727H58.3239V62H48.483ZM85.7386 62V27.0909H95.4205V62H85.7386ZM90.6023 22.5909C89.1629 22.5909 87.928 22.1136 86.8977 21.1591C85.8826 20.1894 85.375 19.0303 85.375 17.6818C85.375 16.3485 85.8826 15.2045 86.8977 14.25C87.928 13.2803 89.1629 12.7955 90.6023 12.7955C92.0417 12.7955 93.2689 13.2803 94.2841 14.25C95.3144 15.2045 95.8295 16.3485 95.8295 17.6818C95.8295 19.0303 95.3144 20.1894 94.2841 21.1591C93.2689 22.1136 92.0417 22.5909 90.6023 22.5909ZM118.903 75.8182C115.767 75.8182 113.078 75.3864 110.835 74.5227C108.608 73.6742 106.835 72.5152 105.517 71.0455C104.199 69.5758 103.343 67.9242 102.949 66.0909L111.903 64.8864C112.176 65.5833 112.608 66.2348 113.199 66.8409C113.79 67.447 114.57 67.9318 115.54 68.2955C116.525 68.6742 117.722 68.8636 119.131 68.8636C121.237 68.8636 122.972 68.3485 124.335 67.3182C125.714 66.303 126.403 64.5985 126.403 62.2045V55.8182H125.994C125.57 56.7879 124.934 57.7045 124.085 58.5682C123.237 59.4318 122.146 60.1364 120.812 60.6818C119.479 61.2273 117.888 61.5 116.04 61.5C113.419 61.5 111.032 60.8939 108.881 59.6818C106.744 58.4545 105.04 56.5833 103.767 54.0682C102.509 51.5379 101.881 48.3409 101.881 44.4773C101.881 40.5227 102.525 37.2197 103.812 34.5682C105.1 31.9167 106.813 29.9318 108.949 28.6136C111.1 27.2955 113.456 26.6364 116.017 26.6364C117.972 26.6364 119.608 26.9697 120.926 27.6364C122.244 28.2879 123.305 29.1061 124.108 30.0909C124.926 31.0606 125.555 32.0152 125.994 32.9545H126.358V27.0909H135.972V62.3409C135.972 65.3106 135.244 67.7955 133.79 69.7955C132.335 71.7955 130.32 73.2955 127.744 74.2955C125.184 75.3106 122.237 75.8182 118.903 75.8182ZM119.108 54.2273C120.669 54.2273 121.987 53.8409 123.062 53.0682C124.153 52.2803 124.987 51.1591 125.562 49.7045C126.153 48.2348 126.449 46.4773 126.449 44.4318C126.449 42.3864 126.161 40.6136 125.585 39.1136C125.009 37.5985 124.176 36.4242 123.085 35.5909C121.994 34.7576 120.669 34.3409 119.108 34.3409C117.517 34.3409 116.176 34.7727 115.085 35.6364C113.994 36.4848 113.169 37.6667 112.608 39.1818C112.047 40.697 111.767 42.447 111.767 44.4318C111.767 46.447 112.047 48.1894 112.608 49.6591C113.184 51.1136 114.009 52.2424 115.085 53.0455C116.176 53.8333 117.517 54.2273 119.108 54.2273ZM143.676 62V27.0909H152.903V33.25H153.312C154.04 31.2045 155.252 29.5909 156.949 28.4091C158.646 27.2273 160.676 26.6364 163.04 26.6364C165.434 26.6364 167.472 27.2348 169.153 28.4318C170.835 29.6136 171.956 31.2197 172.517 33.25H172.881C173.593 31.25 174.881 29.6515 176.744 28.4545C178.623 27.2424 180.843 26.6364 183.403 26.6364C186.661 26.6364 189.305 27.6742 191.335 29.75C193.381 31.8106 194.403 34.7348 194.403 38.5227V62H184.744V40.4318C184.744 38.4924 184.229 37.0379 183.199 36.0682C182.169 35.0985 180.881 34.6136 179.335 34.6136C177.578 34.6136 176.206 35.1742 175.222 36.2955C174.237 37.4015 173.744 38.8636 173.744 40.6818V62H164.358V40.2273C164.358 38.5152 163.866 37.1515 162.881 36.1364C161.911 35.1212 160.631 34.6136 159.04 34.6136C157.964 34.6136 156.994 34.8864 156.131 35.4318C155.282 35.9621 154.608 36.7121 154.108 37.6818C153.608 38.6364 153.358 39.7576 153.358 41.0455V62H143.676ZM212.006 62.6591C209.778 62.6591 207.794 62.2727 206.051 61.5C204.309 60.7121 202.93 59.553 201.915 58.0227C200.915 56.4773 200.415 54.553 200.415 52.25C200.415 50.3106 200.771 48.6818 201.483 47.3636C202.195 46.0455 203.165 44.9848 204.392 44.1818C205.619 43.3788 207.013 42.7727 208.574 42.3636C210.15 41.9545 211.801 41.6667 213.528 41.5C215.559 41.2879 217.195 41.0909 218.438 40.9091C219.68 40.7121 220.581 40.4242 221.142 40.0455C221.703 39.6667 221.983 39.1061 221.983 38.3636V38.2273C221.983 36.7879 221.528 35.6742 220.619 34.8864C219.725 34.0985 218.453 33.7045 216.801 33.7045C215.059 33.7045 213.672 34.0909 212.642 34.8636C211.612 35.6212 210.93 36.5758 210.597 37.7273L201.642 37C202.097 34.8788 202.991 33.0455 204.324 31.5C205.657 29.9394 207.377 28.7424 209.483 27.9091C211.604 27.0606 214.059 26.6364 216.847 26.6364C218.786 26.6364 220.642 26.8636 222.415 27.3182C224.203 27.7727 225.786 28.4773 227.165 29.4318C228.559 30.3864 229.657 31.6136 230.46 33.1136C231.263 34.5985 231.665 36.3788 231.665 38.4545V62H222.483V57.1591H222.21C221.65 58.25 220.9 59.2121 219.96 60.0455C219.021 60.8636 217.892 61.5076 216.574 61.9773C215.256 62.4318 213.733 62.6591 212.006 62.6591ZM214.778 55.9773C216.203 55.9773 217.46 55.697 218.551 55.1364C219.642 54.5606 220.498 53.7879 221.119 52.8182C221.741 51.8485 222.051 50.75 222.051 49.5227V45.8182C221.748 46.0152 221.331 46.197 220.801 46.3636C220.286 46.5152 219.703 46.6591 219.051 46.7955C218.4 46.9167 217.748 47.0303 217.097 47.1364C216.445 47.2273 215.854 47.3106 215.324 47.3864C214.188 47.553 213.195 47.8182 212.347 48.1818C211.498 48.5455 210.839 49.0379 210.369 49.6591C209.9 50.2652 209.665 51.0227 209.665 51.9318C209.665 53.25 210.142 54.2576 211.097 54.9545C212.066 55.6364 213.294 55.9773 214.778 55.9773ZM64.892 104.091V108.636H46.0739V104.091H64.892ZM51.7102 139V99.2727C51.7102 97.2727 52.1799 95.6061 53.1193 94.2727C54.0587 92.9394 55.2784 91.9394 56.7784 91.2727C58.2784 90.6061 59.8617 90.2727 61.5284 90.2727C62.8466 90.2727 63.9223 90.3788 64.7557 90.5909C65.589 90.803 66.2102 91 66.6193 91.1818L65.0739 95.8182C64.8011 95.7273 64.4223 95.6136 63.9375 95.4773C63.4678 95.3409 62.8466 95.2727 62.0739 95.2727C60.3011 95.2727 59.0208 95.7197 58.233 96.6136C57.4602 97.5076 57.0739 98.8182 57.0739 100.545V139H51.7102ZM85.1534 139.727C82.0019 139.727 79.2367 138.977 76.858 137.477C74.4943 135.977 72.6458 133.879 71.3125 131.182C69.9943 128.485 69.3352 125.333 69.3352 121.727C69.3352 118.091 69.9943 114.917 71.3125 112.205C72.6458 109.492 74.4943 107.386 76.858 105.886C79.2367 104.386 82.0019 103.636 85.1534 103.636C88.3049 103.636 91.0625 104.386 93.4261 105.886C95.8049 107.386 97.6534 109.492 98.9716 112.205C100.305 114.917 100.972 118.091 100.972 121.727C100.972 125.333 100.305 128.485 98.9716 131.182C97.6534 133.879 95.8049 135.977 93.4261 137.477C91.0625 138.977 88.3049 139.727 85.1534 139.727ZM85.1534 134.909C87.5473 134.909 89.517 134.295 91.0625 133.068C92.608 131.841 93.7519 130.227 94.4943 128.227C95.2367 126.227 95.608 124.061 95.608 121.727C95.608 119.394 95.2367 117.22 94.4943 115.205C93.7519 113.189 92.608 111.561 91.0625 110.318C89.517 109.076 87.5473 108.455 85.1534 108.455C82.7595 108.455 80.7898 109.076 79.2443 110.318C77.6989 111.561 76.5549 113.189 75.8125 115.205C75.0701 117.22 74.6989 119.394 74.6989 121.727C74.6989 124.061 75.0701 126.227 75.8125 128.227C76.5549 130.227 77.6989 131.841 79.2443 133.068C80.7898 134.295 82.7595 134.909 85.1534 134.909ZM109.159 139V104.091H114.341V109.364H114.705C115.341 107.636 116.492 106.235 118.159 105.159C119.826 104.083 121.705 103.545 123.795 103.545C124.189 103.545 124.682 103.553 125.273 103.568C125.864 103.583 126.311 103.606 126.614 103.636V109.091C126.432 109.045 126.015 108.977 125.364 108.886C124.727 108.78 124.053 108.727 123.341 108.727C121.644 108.727 120.129 109.083 118.795 109.795C117.477 110.492 116.432 111.462 115.659 112.705C114.902 113.932 114.523 115.333 114.523 116.909V139H109.159ZM164.153 139.727C161.244 139.727 158.676 138.992 156.449 137.523C154.222 136.038 152.479 133.947 151.222 131.25C149.964 128.538 149.335 125.333 149.335 121.636C149.335 117.97 149.964 114.788 151.222 112.091C152.479 109.394 154.229 107.311 156.472 105.841C158.714 104.371 161.305 103.636 164.244 103.636C166.517 103.636 168.313 104.015 169.631 104.773C170.964 105.515 171.979 106.364 172.676 107.318C173.388 108.258 173.941 109.03 174.335 109.636H174.79V92.4545H180.153V139H174.972V133.636H174.335C173.941 134.273 173.381 135.076 172.653 136.045C171.926 137 170.888 137.856 169.54 138.614C168.191 139.356 166.396 139.727 164.153 139.727ZM164.881 134.909C167.032 134.909 168.85 134.348 170.335 133.227C171.82 132.091 172.949 130.523 173.722 128.523C174.494 126.508 174.881 124.182 174.881 121.545C174.881 118.939 174.502 116.659 173.744 114.705C172.987 112.735 171.866 111.205 170.381 110.114C168.896 109.008 167.063 108.455 164.881 108.455C162.608 108.455 160.714 109.038 159.199 110.205C157.699 111.356 156.57 112.924 155.812 114.909C155.07 116.879 154.699 119.091 154.699 121.545C154.699 124.03 155.078 126.288 155.835 128.318C156.608 130.333 157.744 131.939 159.244 133.136C160.759 134.318 162.638 134.909 164.881 134.909ZM205.358 139.727C201.994 139.727 199.093 138.985 196.653 137.5C194.229 136 192.358 133.909 191.04 131.227C189.737 128.53 189.085 125.394 189.085 121.818C189.085 118.242 189.737 115.091 191.04 112.364C192.358 109.621 194.191 107.485 196.54 105.955C198.903 104.409 201.661 103.636 204.812 103.636C206.631 103.636 208.426 103.939 210.199 104.545C211.972 105.152 213.585 106.136 215.04 107.5C216.494 108.848 217.653 110.636 218.517 112.864C219.381 115.091 219.812 117.833 219.812 121.091V123.364H192.903V118.727H214.358C214.358 116.758 213.964 115 213.176 113.455C212.403 111.909 211.297 110.689 209.858 109.795C208.434 108.902 206.752 108.455 204.812 108.455C202.676 108.455 200.828 108.985 199.267 110.045C197.722 111.091 196.532 112.455 195.699 114.136C194.866 115.818 194.449 117.621 194.449 119.545V122.636C194.449 125.273 194.903 127.508 195.812 129.341C196.737 131.159 198.017 132.545 199.653 133.5C201.29 134.439 203.191 134.909 205.358 134.909C206.767 134.909 208.04 134.712 209.176 134.318C210.328 133.909 211.32 133.303 212.153 132.5C212.987 131.682 213.631 130.667 214.085 129.455L219.267 130.909C218.722 132.667 217.805 134.212 216.517 135.545C215.229 136.864 213.638 137.894 211.744 138.636C209.85 139.364 207.722 139.727 205.358 139.727ZM255.455 104.091L242.545 139H237.091L224.182 104.091H230L239.636 131.909H240L249.636 104.091H255.455ZM287.261 111.909L282.443 113.273C282.14 112.47 281.693 111.689 281.102 110.932C280.527 110.159 279.739 109.523 278.739 109.023C277.739 108.523 276.458 108.273 274.898 108.273C272.761 108.273 270.981 108.765 269.557 109.75C268.148 110.72 267.443 111.955 267.443 113.455C267.443 114.788 267.928 115.841 268.898 116.614C269.867 117.386 271.383 118.03 273.443 118.545L278.625 119.818C281.746 120.576 284.072 121.735 285.602 123.295C287.133 124.841 287.898 126.833 287.898 129.273C287.898 131.273 287.322 133.061 286.17 134.636C285.034 136.212 283.443 137.455 281.398 138.364C279.352 139.273 276.973 139.727 274.261 139.727C270.701 139.727 267.754 138.955 265.42 137.409C263.087 135.864 261.61 133.606 260.989 130.636L266.08 129.364C266.564 131.242 267.481 132.652 268.83 133.591C270.193 134.53 271.973 135 274.17 135C276.67 135 278.655 134.47 280.125 133.409C281.61 132.333 282.352 131.045 282.352 129.545C282.352 128.333 281.928 127.318 281.08 126.5C280.231 125.667 278.928 125.045 277.17 124.636L271.352 123.273C268.155 122.515 265.807 121.341 264.307 119.75C262.822 118.144 262.08 116.136 262.08 113.727C262.08 111.758 262.633 110.015 263.739 108.5C264.86 106.985 266.383 105.795 268.307 104.932C270.246 104.068 272.443 103.636 274.898 103.636C278.352 103.636 281.064 104.394 283.034 105.909C285.019 107.424 286.428 109.424 287.261 111.909Z" fill="#9E9996"/>
<path d="M275 49.5C275 44.2653 279.244 40 284.5 40C289.735 40 294 44.2438 294 49.5C294 54.7347 289.756 59 284.5 59C279.265 59 275 54.7347 275 49.5Z" fill="#1ABCFE"/>
<path d="M256 68C256 63.0408 260.244 59 265.5 59H275V68C275 72.9592 270.756 77 265.5 77C260.244 77 256 72.9796 256 68Z" fill="#0ACF83"/>
<path d="M275 22.0204V40H284.5C289.735 40 294 35.9796 294 31C294 26.0408 289.756 22 284.5 22H275V22.0204Z" fill="#FF7262"/>
<path d="M256 31C256 35.9592 260.244 40 265.5 40H275V22H265.5C260.244 22 256 26.0204 256 31Z" fill="#F24E1E"/>
<path d="M256 49.5C256 54.7347 260.244 59 265.5 59H275V40H265.5C260.244 40 256 44.2653 256 49.5Z" fill="#A259FF"/>
</svg>
